<svg version="1.1" viewBox="0 0 336.1 335.98" xmlns="http://www.w3.org/2000/svg">
 <g id="icon" transform="translate(.0043227 -70.888)" fill="white" fill-rule="evenodd">
  <path transform="translate(0 -.16)" d="m234.74 84.95c-9.51 9.4-18.48 18.11-27.36 27.05-4.77 4.55-10.81 10.38-10.81 10.38l-13.57-1.76c-65-9.75-128.28 38.2-137 103.76-8.87 66.73 34.4 126.21 100.61 138.3s132.09-35.3 141.7-102a128 128 0 0 0-0.68-41.77 13.79 13.79 0 0 0-0.41-2.77c11.81-12.18 25-25.5 37.11-37.82 24.2 57.68 13.52 142.68-54.96 194.8-65.1 49.53-157.88 44.24-216.89-12.22-60.38-57.77-69.88-149.9-22.16-218 48.93-69.85 136.46-87.9 204.42-57.95z"/>
  <path transform="translate(0 -.16)" d="m165.35 277.83-36.58-37.23c0.6-0.69 1.49-1.82 2.51-2.84q77-77.38 154-154.78c5.41-5.45 11.44-7.67 18.5-4.86 11.73 4.68 20 13 23.7 25.29a15.35 15.35 0 0 1-4.12 16.07q-78.3 78.52-156.57 157.17c-0.35 0.35-0.79 0.63-1.44 1.18z"/>
 </g>
</svg>
